<svg id="Layer_1" data-name="Layer 1" xmlns="http://www.w3.org/2000/svg" xmlns:xlink="http://www.w3.org/1999/xlink" viewBox="0 0 560 560"><defs><style>.cls-1{fill:#fff;}.cls-2{fill:url(#linear-gradient);}</style><linearGradient id="linear-gradient" x1="101.52" y1="3.98" x2="428.1" y2="452.42" gradientUnits="userSpaceOnUse"><stop offset="0" stop-color="#1a84ff"/><stop offset="0" stop-color="#2389ff"/><stop offset="0" stop-color="#3d97ff"/><stop offset="0" stop-color="#439aff"/><stop offset="0.37" stop-color="#ffaefa"/><stop offset="0.62" stop-color="#ffb573"/><stop offset="0.78" stop-color="#ffb656"/><stop offset="0.97" stop-color="#ffeb50"/></linearGradient></defs><title>Artboard 2</title><rect class="cls-1" width="560" height="560"/><path class="cls-2" d="M58.86,39.25c1.79-6.86,16.85-7.43,22.06-7.66,49.64-2.24,95.18,34.31,115.63,79.59s19.88,97.37,12.12,146.45-22.28,97-28.62,146.26c-6.39,49.69,3.75,105.2,58.65,121.22,26.46,7.72,56.18,2,78.71-13.9,54.61-38.47,51.78-110.36,27.33-165.4-13.75-31-32.85-59.21-49.47-88.73-27.81-49.39-30.95-116.36,31.77-141.39,31.58-12.6,69.6-5.39,95.9,16.16,12.61,10.33,22.61,23.49,34.65,34.48s27.28,20.05,43.56,19.28c1.11,5.43-4.33,10.15-9.72,11.44s-11.14.56-16.46,2.1c-14.05,4.07-24,23.14-38,18.69-10.8-3.45-12.17-17.69-15.23-28.61-5.77-20.59-28.27-37-48.67-30.6-16.07,5-26,22.25-27,39.05-1,16.43,5,33.16,12.54,47.49l-4.22-7.51c12,23.14,22.25,48.14,27.2,73.82,5,26.1,4.06,53.95-6.82,78.2-13.12,29.24-40,51.14-70.38,61.5s-63.7,9.82-94.8,2.1c-39-9.68-76.47-32-96.09-67-51-91.21,28.69-195-9.73-288.45A124.51,124.51,0,0,0,76,56.54c-3.18-3.13-17.14-11.41-17.3-15.67A5.56,5.56,0,0,1,58.86,39.25Z"/></svg>